<svg width="18" height="18" fill="none" xmlns="http://www.w3.org/2000/svg"><path d="M12.375 18h-6.75A5.626 5.626 0 010 12.375v-6.75A5.626 5.626 0 015.625 0h6.75A5.626 5.626 0 0118 5.625v6.75A5.626 5.626 0 0112.375 18zm3.938-12.375a3.942 3.942 0 00-3.938-3.938h-6.75a3.942 3.942 0 00-3.938 3.938v6.75a3.942 3.942 0 003.938 3.938h6.75a3.942 3.942 0 003.938-3.938v-6.75z" fill="#000"/><path d="M9 13.5a4.5 4.5 0 110-9 4.5 4.5 0 010 9zm0-7.313A2.816 2.816 0 006.187 9 2.816 2.816 0 009 11.813 2.816 2.816 0 0011.813 9 2.816 2.816 0 009 6.187zM13.838 13.238a.6.6 0 110 1.199.6.6 0 010-1.2z" fill="#000"/></svg>